<svg width="126" height="126" viewBox="0 0 126 126" fill="none" xmlns="http://www.w3.org/2000/svg">
<path d="M26.5001 79.4002C26.5001 86.7002 20.6001 92.6002 13.3001 92.6002C6.0001 92.6002 0.100098 86.7002 0.100098 79.4002C0.100098 72.1002 6.0001 66.2002 13.3001 66.2002H26.5001V79.4002ZM33.1001 79.4002C33.1001 72.1002 39.0001 66.2002 46.3001 66.2002C53.6001 66.2002 59.5001 72.1002 59.5001 79.4002V112.4C59.5001 119.7 53.6001 125.6 46.3001 125.6C39.0001 125.6 33.1001 119.7 33.1001 112.4V79.4002Z" fill="#E01E5A"/>
<path d="M46.3 26.4C39 26.4 33.1 20.5 33.1 13.2C33.1 5.9 39 0 46.3 0C53.6 0 59.5 5.9 59.5 13.2V26.4H46.3ZM46.3 33.1C53.6 33.1 59.5 39 59.5 46.3C59.5 53.6 53.6 59.5 46.3 59.5H13.2C5.9 59.5 0 53.6 0 46.3C0 39 5.9 33.1 13.2 33.1H46.3Z" fill="#36C5F0"/>
<path d="M99.2 46.3C99.2 39 105.1 33.1 112.4 33.1C119.7 33.1 125.6 39 125.6 46.3C125.6 53.6 119.7 59.5 112.4 59.5H99.2V46.3ZM92.6 46.3C92.6 53.6 86.6999 59.5 79.3999 59.5C72.0999 59.5 66.2 53.6 66.2 46.3V13.2C66.2 5.9 72.0999 0 79.3999 0C86.6999 0 92.6 5.9 92.6 13.2V46.3V46.3Z" fill="#2EB67D"/>
<path d="M79.3999 99.2002C86.6999 99.2002 92.6 105.1 92.6 112.4C92.6 119.7 86.6999 125.6 79.3999 125.6C72.0999 125.6 66.2 119.7 66.2 112.4V99.2002H79.3999ZM79.3999 92.6002C72.0999 92.6002 66.2 86.7002 66.2 79.4002C66.2 72.1002 72.0999 66.2002 79.3999 66.2002H112.5C119.8 66.2002 125.7 72.1002 125.7 79.4002C125.7 86.7002 119.8 92.6002 112.5 92.6002H79.3999Z" fill="#ECB22E"/>
</svg>
